<?xml version="1.0" encoding="UTF-8"?>
<svg id="Layer_1" data-name="Layer 1" xmlns="http://www.w3.org/2000/svg" xmlns:xlink="http://www.w3.org/1999/xlink" viewBox="0 0 946.35 157.38">
  <defs>
    <style>
      .cls-1 {
        fill: #9ecc3b;
      }

      .cls-2 {
        fill: url(#linear-gradient-2);
      }

      .cls-3 {
        fill: #163845;
      }

      .cls-4 {
        fill: url(#linear-gradient-3);
      }

      .cls-5 {
        fill: #084d50;
      }

      .cls-6 {
        fill: url(#linear-gradient);
      }
    </style>
    <linearGradient id="linear-gradient" x1="25.16" y1="118.27" x2="99.84" y2="118.27" gradientUnits="userSpaceOnUse">
      <stop offset=".03" stop-color="#9ecc3b"/>
      <stop offset=".12" stop-color="#80ab3d"/>
      <stop offset=".23" stop-color="#5f883f"/>
      <stop offset=".36" stop-color="#456b41"/>
      <stop offset=".49" stop-color="#305443"/>
      <stop offset=".63" stop-color="#214444"/>
      <stop offset=".79" stop-color="#183a44"/>
      <stop offset="1" stop-color="#163845"/>
    </linearGradient>
    <linearGradient id="linear-gradient-2" x1="285.81" y1="25.94" x2="261.67" y2="36.08" gradientUnits="userSpaceOnUse">
      <stop offset="0" stop-color="#084d50"/>
      <stop offset=".22" stop-color="#0a4f4f"/>
      <stop offset=".38" stop-color="#14574e"/>
      <stop offset=".53" stop-color="#24654c"/>
      <stop offset=".66" stop-color="#3b7848"/>
      <stop offset=".79" stop-color="#589144"/>
      <stop offset=".9" stop-color="#7baf3f"/>
      <stop offset="1" stop-color="#9ecc3b"/>
    </linearGradient>
    <linearGradient id="linear-gradient-3" x1="269.79" y1="34.6" x2="282.33" y2="23.53" gradientUnits="userSpaceOnUse">
      <stop offset=".03" stop-color="#9ecc3b"/>
      <stop offset=".12" stop-color="#7baf3f"/>
      <stop offset=".24" stop-color="#589144"/>
      <stop offset=".36" stop-color="#3b7848"/>
      <stop offset=".49" stop-color="#24654c"/>
      <stop offset=".63" stop-color="#14574e"/>
      <stop offset=".79" stop-color="#0a4f4f"/>
      <stop offset="1" stop-color="#084d50"/>
    </linearGradient>
  </defs>
  <g>
    <g>
      <path class="cls-3" d="M360.88,124.31c0-2.38.38-5.04,1.11-7.91h3.25c-.57,2.62-.95,4.96-.95,6.69,0,4.32,1.96,6.67,5.69,6.67,4.45,0,6.06-3.37,6.06-8.1,0-3.33-.83-7.11-2.04-11.32h3.81c1.18,3.99,1.8,7.87,1.8,11.32,0,7.79-3.05,13.41-9.83,13.41-5.64,0-8.9-4.3-8.9-10.76ZM366.6,106.65l1.97-3.12,3.2,2.89-1.97,3.14-3.2-2.91Z"/>
      <path class="cls-3" d="M383.65,127.29v-4.71c1.23.04,2.35.02,3.38-.08,7.43-.78,9.14-5.56,9.14-15.6v-11.47h3.77v20.91c0,3.78.74,4.4,2.35,4.4h.24v5.27h-.62c-2.51,0-3.93-1.28-4.53-4.71-.62,1.34-1.45,2.54-2.35,3.43-1.99,1.98-4.66,2.93-8.17,2.93-.99,0-2.06-.12-3.2-.37ZM383.74,100.06h4.19c1.3,4.15,3.48,13.03,3.44,17.99-.71.56-2.27,1.1-3.13,1.22-.61-6.01-2.27-12.52-4.5-19.21Z"/>
      <path class="cls-3" d="M400.41,123.42c0-1.8.5-2.69,2.13-2.69h7.93v5.27h-7.93c-1.54,0-2.13-.72-2.13-2.58Z"/>
      <path class="cls-3" d="M408.34,123.42c0-1.8.5-2.69,2.13-2.69h7.93v5.27h-7.93c-1.54,0-2.13-.72-2.13-2.58Z"/>
      <path class="cls-3" d="M416.27,123.42c0-1.8.5-2.69,2.13-2.69h7.93v5.27h-7.93c-1.54,0-2.13-.72-2.13-2.58Z"/>
      <path class="cls-3" d="M424.2,123.42c0-1.8.5-2.69,2.13-2.69h7.93v5.27h-7.93c-1.54,0-2.13-.72-2.13-2.58Z"/>
      <path class="cls-3" d="M432.13,123.42c0-1.8.5-2.69,2.13-2.69h3.32c-.99-1.59-1.33-3.57-1.33-5.04,0-5.14,3.17-8.37,7.27-8.37,1.59,0,3.27.43,4.86,1.26l-.71,4.38c-1.47-.64-2.7-.95-3.96-.95-2.18,0-3.96,1.24-3.96,3.68s1.75,3.95,3.18,4.36c.45.12.95.18,1.44.16,1.45-.1,3.22-.7,6.66-2.25v4.9c-6.27,2.95-10.52,3.14-15.72,3.14h-1.06c-1.54,0-2.13-.72-2.13-2.58Z"/>
      <path class="cls-3" d="M455.06,122.58c1.23.04,2.35.02,3.38-.08,7.43-.78,9.14-5.56,9.14-15.6v-11.47h3.77v7.19c0,8.51-.68,14.71-2.58,18.67-2.06,4.38-5.37,6.36-10.51,6.36-.99,0-2.06-.12-3.2-.37v-4.71ZM455.15,100.06h4.19c1.3,4.15,3.48,13.03,3.44,17.99-.71.56-2.27,1.1-3.13,1.22-.61-6.01-2.27-12.52-4.5-19.21Z"/>
      <path class="cls-3" d="M475.96,95.43h3.77v30.57h-3.77v-30.57Z"/>
      <path class="cls-3" d="M484.19,135.22v-4.38c.93.14,1.78.21,2.54.21,4.97,0,6.75-2.6,7.17-5.97l-.07-.08c-1.09.6-2.18.81-3.25.81-3.7,0-6.53-2.09-6.53-7.33,0-4.54,2.44-9.75,6.51-9.75,4.71,0,6.68,5.08,6.68,11.36v.7c-.02,8.22-2.48,15.16-8.62,15.16-1.33,0-2.8-.27-4.43-.72ZM493.79,119.85c.24-.37.22-.81.19-1.3-.16-2.4-1.31-4.71-3.39-4.71-2.49,0-3.57,2.5-3.55,4.46,0,1.73,1.4,2.58,3.65,2.58,1.07,0,2.56-.21,3.1-1.03Z"/>
      <path class="cls-3" d="M518.98,121.44c-.87.78-2.02,1.3-3.57,1.3-3.39,0-5.97-2.29-5.97-6.67s3.27-9.67,9.14-10.43v-1.98h3.62v13.72c0,2.73.74,3.37,2.6,3.37h.59v5.27h-.87c-2.99,0-4.88-1.53-5.54-4.56ZM518.27,116.63c.29-.43.36-.93.36-1.47.03-1.12.03-2.77.03-5-4.31.43-6.13,3.37-6.13,5.45,0,1.59,1.63,2.21,3.17,2.21,1.21,0,2.16-.43,2.56-1.2ZM515.09,97.07l1.83-2.91,2.89,2.62,1.64-2.62,2.99,2.71-1.83,2.91-2.91-2.62-1.64,2.62-2.98-2.71Z"/>
      <path class="cls-3" d="M523.26,123.42c0-1.8.5-2.69,2.13-2.69h7.93v5.27h-7.93c-1.54,0-2.13-.72-2.13-2.58Z"/>
      <path class="cls-3" d="M531.19,123.42c0-1.8.5-2.69,2.13-2.69h7.93v5.27h-7.93c-1.54,0-2.13-.72-2.13-2.58Z"/>
      <path class="cls-3" d="M539.12,123.42c0-1.8.5-2.69,2.13-2.69h7.93v5.27h-7.93c-1.54,0-2.13-.72-2.13-2.58Z"/>
      <path class="cls-3" d="M547.05,123.42c0-1.8.5-2.69,2.13-2.69h7.93v5.27h-7.93c-1.54,0-2.13-.72-2.13-2.58Z"/>
      <path class="cls-3" d="M554.98,123.42c0-1.8.5-2.69,2.13-2.69h7.93v5.27h-7.93c-1.54,0-2.13-.72-2.13-2.58Z"/>
      <path class="cls-3" d="M562.91,123.42c0-1.8.5-2.69,2.13-2.69h7.93v5.27h-7.93c-1.54,0-2.13-.72-2.13-2.58Z"/>
      <path class="cls-3" d="M570.84,123.42c0-1.8.5-2.69,2.13-2.69h7.93v5.27h-7.93c-1.54,0-2.13-.72-2.13-2.58Z"/>
      <path class="cls-3" d="M578.77,123.42c0-1.8.5-2.69,2.13-2.69h1.73c2.06,0,3.06-.56,3.36-2.23.07-.37.1-.81.1-1.3,0-2.29-.5-5.06-1.4-8.74h3.89c.71,3.16,1.13,6.16,1.13,8.57,0,.64-.03,1.24-.09,1.82-.48,4.79-2.92,7.15-7.32,7.15h-1.4c-1.54,0-2.13-.72-2.13-2.58ZM579.61,133.05l1.84-2.91,2.91,2.62,1.64-2.62,2.98,2.71-1.84,2.91-2.89-2.62-1.65,2.62-2.99-2.71Z"/>
      <path class="cls-3" d="M594,118.51v-23.07h3.77v22.04c0,2.71.59,3.26,2.61,3.26h.24v5.27h-.52c-4.14,0-6.11-2.33-6.11-7.5Z"/>
      <path class="cls-3" d="M598.5,123.42c0-1.8.5-2.69,2.13-2.69h3.32c-.99-1.59-1.33-3.57-1.33-5.04,0-5.14,3.17-8.37,7.27-8.37,1.59,0,3.27.43,4.86,1.26l-.71,4.38c-1.47-.64-2.7-.95-3.96-.95-2.18,0-3.96,1.24-3.96,3.68s1.75,3.95,3.18,4.36c.45.12.95.18,1.44.16,1.45-.1,3.22-.7,6.66-2.25v4.9c-6.27,2.95-10.52,3.14-15.72,3.14h-1.06c-1.54,0-2.13-.72-2.13-2.58Z"/>
      <path class="cls-3" d="M621.39,118.76v-1.57h3.44v1.12c0,2,.57,2.56,2.87,2.56h1.04c2.35,0,3.36-.78,3.36-2.46,0-.43-.07-.97-.21-1.55l-2.61-10.29,3.65-1.24,2.73,11.46c.69,2.95,1.39,3.95,2.86,3.95h.33v5.27h-.41c-1.87,0-3.29-.97-4.15-2.69-1.06,1.86-3.06,2.81-5.4,2.81h-1.09c-4.34,0-6.4-1.76-6.4-7.37Z"/>
      <path class="cls-3" d="M636.73,123.42c0-1.8.5-2.69,2.13-2.69h1.73c1.59,0,2.2-.6,2.2-2.95v-22.35h3.79v22.47c0,2.13.43,2.83,2.11,2.83h.4v5.27h-.76c-1.42,0-2.66-.17-3.82-1.53-1.07,1.34-2.86,1.53-4.53,1.53h-1.11c-1.54,0-2.13-.72-2.13-2.58Z"/>
      <path class="cls-3" d="M646.96,123.42c0-1.8.5-2.69,2.13-2.69h.64c2.54,0,3.22-1.05,3.22-4.9v-20.41h3.77v18.22c0,8.35-1.07,12.35-7.03,12.35h-.61c-1.54,0-2.13-.72-2.13-2.58Z"/>
      <path class="cls-3" d="M669.24,124.66c0-3.53,1.11-5.62,3.5-6.01.1-1.24.42-2.5.69-3.47.92-3.31,2.72-6.47,5.95-6.47,4.12,0,6.8,4.71,6.8,10.16,0,3.99-1.49,7.25-5.04,7.25-2.15,0-4.48-1.03-6.42-2.83-1.32-.25-1.76.43-1.76,1.69,0,3.1.33,7.35.78,13.43h-3.79c-.33-5.04-.71-10.51-.71-13.76ZM683.21,118.49c0-2.69-1.84-4.81-3.9-4.81-1.26,0-2.27,1.26-2.77,2.5-.43,1.05-.42,1.98.29,2.85.94,1.24,2.86,1.94,4.33,1.94s2.04-1.14,2.04-2.48Z"/>
      <path class="cls-3" d="M690.48,118.51v-23.07h3.77v22.04c0,2.71.59,3.26,2.61,3.26h.24v5.27h-.52c-4.14,0-6.11-2.33-6.11-7.5Z"/>
      <path class="cls-3" d="M694.99,123.42c0-1.8.5-2.69,2.13-2.69h7.93v5.27h-7.93c-1.54,0-2.13-.72-2.13-2.58Z"/>
      <path class="cls-3" d="M702.92,123.42c0-1.8.5-2.69,2.13-2.69h7.93v5.27h-7.93c-1.54,0-2.13-.72-2.13-2.58Z"/>
      <path class="cls-3" d="M710.84,123.42c0-1.8.5-2.69,2.13-2.69h7.93v5.27h-7.93c-1.54,0-2.13-.72-2.13-2.58Z"/>
      <path class="cls-3" d="M718.77,123.42c0-1.8.5-2.69,2.13-2.69h7.93v5.27h-7.93c-1.54,0-2.13-.72-2.13-2.58Z"/>
      <path class="cls-3" d="M726.7,123.42c0-1.8.5-2.69,2.13-2.69h7.93v5.27h-7.93c-1.54,0-2.13-.72-2.13-2.58Z"/>
      <path class="cls-3" d="M734.63,123.42c0-1.8.5-2.69,2.13-2.69h7.93v5.27h-7.93c-1.54,0-2.13-.72-2.13-2.58Z"/>
      <path class="cls-3" d="M742.56,123.42c0-1.8.5-2.69,2.13-2.69h7.93v5.27h-7.93c-1.54,0-2.13-.72-2.13-2.58Z"/>
      <path class="cls-3" d="M750.49,123.42c0-1.8.5-2.69,2.13-2.69h7.93v5.27h-7.93c-1.54,0-2.13-.72-2.13-2.58Z"/>
      <path class="cls-3" d="M758.42,123.42c0-1.8.5-2.69,2.13-2.69h7.93v5.27h-7.93c-1.54,0-2.13-.72-2.13-2.58Z"/>
      <path class="cls-3" d="M766.35,123.42c0-1.8.5-2.69,2.13-2.69h6.47c3.5,0,5.16-.52,5.16-3.74-.92.85-2.25,1.14-3.72,1.14-3.51,0-5.95-2.21-5.95-6.69,0-4.83,2.53-9.25,6.47-9.25s6.42,4.21,6.42,11.77v.83c0,8.18-2.7,11.22-8.59,11.22h-6.27c-1.54,0-2.13-.72-2.13-2.58ZM771.33,95.6l1.84-2.91,2.89,2.62,1.65-2.62,2.98,2.69-1.83,2.93-2.89-2.62-1.64,2.62-2.98-2.71ZM779.83,112.37c.26-.29.31-.62.28-1.14-.17-2.27-1.63-4.17-3.38-4.17-1.89,0-3.34,1.8-3.32,4.15,0,1.4,1.06,2.19,3.48,2.19,1.11,0,2.44-.37,2.94-1.03Z"/>
      <path class="cls-3" d="M783.61,130.88c.66.02,1.26,0,1.8-.06,5.63-.21,6.33-4.98,6.33-8.28,0-3-.59-6.63-1.71-12.19h3.79c.87,4.15,1.44,8.45,1.44,11.98,0,7.64-2.72,13.34-8.6,13.34-.97,0-1.99-.14-3.05-.41v-4.38Z"/>
      <path class="cls-3" d="M797.32,93.66l1.58-.12c-.21-.62-.33-1.24-.33-1.86,0-2.21,1.32-4.19,3.75-4.19.43,0,.88.06,1.35.19v2.64c-.35-.08-.69-.12-1-.12-1.19,0-1.89.54-1.89,1.51,0,.5.19.89.55,1.12.28.25.71.39,1.32.33l2.27-.21v2.66l-7.6.72v-2.66ZM799.29,122.58c1.23.04,2.35.02,3.38-.08,7.42-.78,9.14-5.56,9.14-15.6v-11.47h3.77v7.19c0,8.51-.67,14.71-2.58,18.67-2.06,4.38-5.37,6.36-10.51,6.36-.99,0-2.06-.12-3.2-.37v-4.71ZM799.38,100.06h4.19c1.3,4.15,3.48,13.03,3.44,17.99-.71.56-2.27,1.1-3.13,1.22-.61-6.01-2.27-12.52-4.5-19.21Z"/>
      <path class="cls-3" d="M820.19,95.43h3.77v30.57h-3.77v-30.57Z"/>
      <path class="cls-3" d="M846.04,121.44c-.87.78-2.03,1.3-3.57,1.3-3.39,0-5.97-2.29-5.97-6.67s3.27-9.67,9.14-10.43v-1.98h3.62v13.72c0,2.73.74,3.37,2.6,3.37h.59v5.27h-.87c-3,0-4.88-1.53-5.54-4.56ZM845.33,116.63c.29-.43.36-.93.36-1.47.03-1.12.03-2.77.03-5-4.31.43-6.13,3.37-6.13,5.45,0,1.59,1.63,2.21,3.17,2.21,1.21,0,2.16-.43,2.56-1.2ZM842.14,97.07l1.83-2.91,2.89,2.62,1.64-2.62,3,2.71-1.84,2.91-2.91-2.62-1.65,2.62-2.98-2.71Z"/>
      <path class="cls-3" d="M850.31,123.42c0-1.8.5-2.69,2.13-2.69h7.93v5.27h-7.93c-1.54,0-2.13-.72-2.13-2.58Z"/>
      <path class="cls-3" d="M858.24,123.42c0-1.8.5-2.69,2.13-2.69h7.93v5.27h-7.93c-1.54,0-2.13-.72-2.13-2.58Z"/>
      <path class="cls-3" d="M866.17,123.42c0-1.8.5-2.69,2.13-2.69h7.93v5.27h-7.93c-1.54,0-2.13-.72-2.13-2.58Z"/>
      <path class="cls-3" d="M874.1,123.42c0-1.8.5-2.69,2.13-2.69h1.13c.78,0,1.7-.04,2.6-.12-.97-1.38-1.65-3.24-1.65-5.49,0-4.83,2.82-9.01,6.27-9.01s6.28,4.15,6.28,9.27c0,2.19-.54,3.95-1.42,5.23.92.1,1.71.12,2.41.12h1.07v5.27h-1.13c-2.58,0-4.92-.58-7.01-1.71-2.08,1.2-4.22,1.71-7.29,1.71h-1.26c-1.54,0-2.13-.72-2.13-2.58ZM878.9,99.52l1.83-2.91,2.89,2.62,1.65-2.62,2.99,2.71-1.83,2.91-2.89-2.62-1.66,2.62-2.98-2.71ZM887.97,115.12c0-1.9-1.49-4.25-3.39-4.25-1.73,0-3.36,1.94-3.36,4.17,0,2.66,2.37,4.03,3.53,4.03,1.09,0,3.22-1.34,3.22-3.95Z"/>
      <path class="cls-3" d="M890.79,123.42c0-1.8.5-2.69,2.13-2.69h1.04c1.59,0,2.53-.19,3.1-.74.61-.6.76-1.65.76-3.35v-6.3h3.48v6.05c0,1.57.09,2.66.47,3.35.38.7,1.06.99,2.2.99h.31v5.27h-.57c-1.56,0-3.31-.58-4.27-2-1.07,1.61-3.08,2-5.5,2h-1c-1.54,0-2.13-.72-2.13-2.58ZM892.07,133.05l1.83-2.91,2.89,2.62,1.64-2.62,2.98,2.71-1.83,2.91-2.89-2.62-1.65,2.62-2.98-2.71Z"/>
      <path class="cls-3" d="M902.15,123.42c0-1.8.5-2.69,2.13-2.69h1.13c.78,0,1.7-.04,2.6-.12-.97-1.38-1.65-3.24-1.65-5.49,0-4.83,2.82-9.01,6.27-9.01s6.28,4.15,6.28,9.27c0,2.19-.54,3.95-1.42,5.23.92.1,1.71.12,2.41.12h1.07v5.27h-1.13c-2.58,0-4.92-.58-7.01-1.71-2.08,1.2-4.22,1.71-7.29,1.71h-1.26c-1.54,0-2.13-.72-2.13-2.58ZM906.94,99.52l1.83-2.91,2.89,2.62,1.65-2.62,2.99,2.71-1.83,2.91-2.89-2.62-1.66,2.62-2.98-2.71ZM916.01,115.12c0-1.9-1.49-4.25-3.39-4.25-1.73,0-3.36,1.94-3.36,4.17,0,2.66,2.37,4.03,3.53,4.03,1.09,0,3.22-1.34,3.22-3.95Z"/>
      <path class="cls-3" d="M918.84,123.42c0-1.8.5-2.69,2.13-2.69h3.57c5.05,0,7.63-.87,10.82-4.01l.73-.72c.35-.35.9-.91,1.47-1.51-1.06-.21-2.22-.45-3.36-.68-1.64-.35-3.22-.66-4.36-.81-.42-.04-.76-.08-1.07-.08-1.99,0-2.7,1.16-2.75,3.45h-3.29c0-5.04,1.82-8.12,5.78-8.12.4,0,.8.02,1.26.08,1.92.19,4.27.81,6.59,1.41,2.74.7,5.43,1.38,7.27,1.38v4.77c-.49.02-.92.1-1.33.23-1,.27-1.7.83-2.7,1.82l-1.76,1.86c-4.41,4.65-7.37,6.2-13.81,6.2h-3.05c-1.54,0-2.13-.72-2.13-2.58Z"/>
    </g>
    <g>
      <path class="cls-3" d="M362.87,77.62v-29.59h12.94c3.21,0,6.03.62,8.45,1.86,2.42,1.24,4.31,2.96,5.66,5.16,1.35,2.2,2.03,4.79,2.03,7.78s-.68,5.55-2.03,7.76-3.24,3.94-5.66,5.18c-2.42,1.24-5.24,1.86-8.45,1.86h-12.94ZM368.36,72.97h7.19c2.23,0,4.15-.42,5.77-1.27,1.62-.84,2.87-2.03,3.76-3.55s1.33-3.3,1.33-5.33-.44-3.84-1.33-5.35c-.89-1.51-2.14-2.69-3.76-3.53-1.62-.85-3.54-1.27-5.77-1.27h-7.19v20.29Z"/>
      <path class="cls-3" d="M399.18,51.33c-.99,0-1.8-.31-2.43-.93-.63-.62-.95-1.37-.95-2.24s.32-1.65.95-2.26c.63-.61,1.44-.91,2.43-.91s1.8.29,2.43.87c.63.58.95,1.3.95,2.18,0,.93-.31,1.71-.93,2.35-.62.63-1.44.95-2.45.95ZM396.51,77.62v-22.57h5.28v22.57h-5.28Z"/>
      <path class="cls-3" d="M417.52,76.61c-2.14,0-4.08-.46-5.81-1.37-1.73-.92-3.1-2.19-4.1-3.82s-1.5-3.55-1.5-5.75.5-4.07,1.5-5.71,2.37-2.9,4.1-3.81c1.73-.9,3.67-1.35,5.81-1.35,1.92,0,3.64.38,5.16,1.14,1.52.76,2.74,1.94,3.66,3.55.92,1.61,1.37,3.66,1.37,6.17s-.46,4.57-1.37,6.19c-.92,1.62-2.13,2.82-3.66,3.59-1.52.78-3.24,1.16-5.16,1.16ZM418.2,86.12c-2.09,0-4.12-.27-6.11-.82-1.99-.55-3.61-1.35-4.88-2.39l2.37-3.97c.99.82,2.23,1.47,3.74,1.96s3.04.74,4.59.74c2.48,0,4.3-.57,5.45-1.71,1.16-1.14,1.73-2.85,1.73-5.14v-4.02l.42-5.11-.17-5.11v-5.49h5.03v19.15c0,4.09-1.04,7.09-3.13,9.02-2.09,1.93-5.1,2.9-9.05,2.9ZM418.33,72.13c1.32,0,2.51-.28,3.55-.82,1.04-.55,1.85-1.31,2.43-2.28.58-.97.87-2.09.87-3.36s-.29-2.39-.87-3.36c-.58-.97-1.39-1.72-2.43-2.24-1.04-.52-2.23-.78-3.55-.78s-2.51.26-3.57.78c-1.06.52-1.88,1.27-2.45,2.24-.58.97-.87,2.09-.87,3.36s.29,2.39.87,3.36c.58.97,1.39,1.73,2.45,2.28,1.06.55,2.25.82,3.57.82Z"/>
      <path class="cls-3" d="M439.21,51.33c-.99,0-1.8-.31-2.43-.93-.63-.62-.95-1.37-.95-2.24s.32-1.65.95-2.26c.63-.61,1.44-.91,2.43-.91s1.8.29,2.43.87c.63.58.95,1.3.95,2.18,0,.93-.31,1.71-.93,2.35-.62.63-1.44.95-2.45.95ZM436.54,77.62v-22.57h5.28v22.57h-5.28Z"/>
      <path class="cls-3" d="M445,59.45v-4.23h15.05v4.23h-15.05ZM456.49,77.92c-2.48,0-4.4-.64-5.75-1.92-1.35-1.28-2.03-3.18-2.03-5.69v-20.25h5.28v20.12c0,1.07.27,1.9.82,2.49.55.59,1.32.89,2.3.89,1.18,0,2.17-.31,2.96-.93l1.48,3.76c-.62.51-1.38.89-2.28,1.14s-1.83.38-2.79.38Z"/>
      <path class="cls-3" d="M472.13,77.92c-1.89,0-3.7-.25-5.43-.74-1.73-.49-3.11-1.09-4.12-1.8l2.03-4.01c1.01.65,2.23,1.18,3.64,1.61,1.41.42,2.82.64,4.23.64,1.66,0,2.87-.23,3.61-.68.75-.45,1.12-1.06,1.12-1.82,0-.62-.25-1.09-.76-1.42-.51-.32-1.17-.57-1.99-.74-.82-.17-1.73-.32-2.73-.46-1-.14-2-.33-3-.57-1-.24-1.91-.59-2.73-1.06s-1.48-1.09-1.99-1.88c-.51-.79-.76-1.83-.76-3.13,0-1.44.41-2.68,1.23-3.74.82-1.06,1.97-1.87,3.45-2.45,1.48-.58,3.23-.87,5.26-.87,1.52,0,3.06.17,4.61.51s2.83.82,3.85,1.44l-2.03,4.02c-1.07-.65-2.15-1.09-3.23-1.33-1.08-.24-2.16-.36-3.23-.36-1.61,0-2.8.24-3.57.72-.78.48-1.16,1.08-1.16,1.82,0,.68.25,1.18.76,1.52.51.34,1.17.61,1.99.8.82.2,1.73.36,2.73.49,1,.13,1.99.32,2.98.57.99.25,1.89.6,2.73,1.04.83.44,1.5,1.05,2.01,1.84.51.79.76,1.82.76,3.09,0,1.41-.42,2.63-1.25,3.68-.83,1.04-2.01,1.85-3.53,2.43s-3.34.87-5.45.87Z"/>
      <path class="cls-3" d="M497.58,77.62v-29.59h12.17c2.62,0,4.87.42,6.74,1.27,1.87.84,3.32,2.06,4.33,3.64,1.01,1.58,1.52,3.45,1.52,5.62s-.51,4.04-1.52,5.6c-1.01,1.56-2.46,2.76-4.33,3.59-1.87.83-4.12,1.25-6.74,1.25h-9.13l2.45-2.49v11.12h-5.5ZM503.08,67.1l-2.45-2.62h8.88c2.42,0,4.25-.52,5.47-1.56,1.23-1.04,1.84-2.49,1.84-4.35s-.61-3.34-1.84-4.35c-1.23-1.01-3.05-1.52-5.47-1.52h-8.88l2.45-2.71v17.12ZM516.94,77.62l-7.48-10.74h5.88l7.52,10.74h-5.92Z"/>
      <path class="cls-3" d="M537.82,77.92c-2.51,0-4.7-.5-6.57-1.5-1.87-1-3.33-2.37-4.35-4.12-1.03-1.75-1.54-3.73-1.54-5.96s.5-4.25,1.5-5.98,2.38-3.09,4.14-4.08c1.76-.99,3.77-1.48,6.02-1.48s4.16.48,5.88,1.44c1.72.96,3.07,2.31,4.06,4.06.99,1.75,1.48,3.81,1.48,6.17,0,.23,0,.48-.02.76-.01.28-.04.55-.06.8h-18.81v-3.51h16.02l-2.07,1.1c.03-1.3-.24-2.44-.8-3.42-.56-.99-1.33-1.76-2.3-2.33-.97-.56-2.09-.84-3.36-.84s-2.43.28-3.4.84c-.97.56-1.73,1.35-2.28,2.35-.55,1-.82,2.18-.82,3.53v.84c0,1.35.31,2.55.93,3.59.62,1.04,1.49,1.85,2.62,2.41,1.13.56,2.42.84,3.89.84,1.27,0,2.41-.2,3.42-.59,1.01-.4,1.92-1.01,2.7-1.86l2.83,3.26c-1.01,1.18-2.29,2.09-3.83,2.73-1.54.64-3.29.95-5.26.95Z"/>
      <path class="cls-3" d="M558.91,77.92c-1.69,0-3.17-.29-4.44-.87-1.27-.58-2.25-1.38-2.94-2.41-.69-1.03-1.04-2.19-1.04-3.49s.3-2.41.91-3.42,1.6-1.82,2.98-2.41c1.38-.59,3.21-.89,5.49-.89h6.55v3.51h-6.17c-1.8,0-3.02.29-3.63.87-.62.58-.93,1.29-.93,2.14,0,.96.38,1.72,1.14,2.28.76.56,1.82.85,3.17.85s2.46-.3,3.49-.89c1.03-.59,1.77-1.46,2.22-2.62l.89,3.17c-.51,1.33-1.42,2.35-2.73,3.09-1.31.73-2.97,1.1-4.97,1.1ZM566.02,77.62v-4.56l-.3-.97v-7.99c0-1.55-.46-2.75-1.39-3.61-.93-.86-2.34-1.29-4.23-1.29-1.27,0-2.52.2-3.74.59-1.23.39-2.26.94-3.11,1.65l-2.07-3.85c1.21-.93,2.66-1.63,4.33-2.09,1.68-.46,3.42-.7,5.22-.7,3.27,0,5.8.78,7.59,2.35,1.79,1.56,2.68,3.98,2.68,7.25v13.23h-4.99Z"/>
      <path class="cls-3" d="M577.01,77.62v-31.37h5.28v31.37h-5.28Z"/>
      <path class="cls-3" d="M591.12,51.33c-.99,0-1.8-.31-2.43-.93-.63-.62-.95-1.37-.95-2.24s.32-1.65.95-2.26c.63-.61,1.44-.91,2.43-.91s1.8.29,2.43.87c.64.58.95,1.3.95,2.18,0,.93-.31,1.71-.93,2.35-.62.63-1.44.95-2.45.95ZM588.46,77.62v-22.57h5.29v22.57h-5.29Z"/>
      <path class="cls-3" d="M596.91,59.45v-4.23h15.05v4.23h-15.05ZM608.41,77.92c-2.48,0-4.4-.64-5.75-1.92-1.35-1.28-2.03-3.18-2.03-5.69v-20.25h5.29v20.12c0,1.07.27,1.9.82,2.49.55.59,1.32.89,2.3.89,1.18,0,2.17-.31,2.96-.93l1.48,3.76c-.62.51-1.38.89-2.28,1.14-.9.25-1.83.38-2.79.38Z"/>
      <path class="cls-3" d="M618.51,86.12c-1.1,0-2.2-.18-3.3-.55s-2.02-.87-2.75-1.52l2.11-3.89c.53.48,1.14.86,1.82,1.14.68.28,1.37.42,2.07.42.96,0,1.73-.24,2.33-.72s1.14-1.28,1.65-2.41l1.31-2.96.42-.63,8.54-19.95h5.07l-10.57,24.39c-.71,1.69-1.49,3.03-2.35,4.01-.86.99-1.82,1.68-2.88,2.07-1.06.4-2.22.59-3.49.59ZM623.16,78.43l-10.19-23.38h5.49l8.29,19.49-3.59,3.89Z"/>
      <path class="cls-3" d="M648.11,60v-2.23h12.29v2.23h-12.29ZM651.66,77.62v-22.35c0-1.76.52-3.19,1.55-4.27s2.52-1.63,4.46-1.63c.76,0,1.49.1,2.19.3s1.3.52,1.78.95l-.91,2c-.38-.33-.82-.57-1.32-.74s-1.05-.25-1.63-.25c-1.13,0-2,.32-2.61.95s-.91,1.56-.91,2.8v3.03l.08,1.25v17.96h-2.69Z"/>
      <path class="cls-3" d="M671.1,77.81c-1.92,0-3.64-.43-5.16-1.3-1.53-.87-2.73-2.07-3.61-3.59-.88-1.52-1.32-3.27-1.32-5.24s.44-3.74,1.32-5.26,2.08-2.7,3.59-3.55c1.51-.86,3.24-1.28,5.18-1.28s3.71.43,5.24,1.28c1.53.86,2.72,2.04,3.59,3.55s1.3,3.26,1.3,5.26-.43,3.71-1.3,5.24c-.87,1.53-2.07,2.72-3.61,3.59s-3.28,1.3-5.22,1.3ZM671.1,75.43c1.44,0,2.71-.32,3.82-.96,1.11-.64,1.98-1.55,2.63-2.72.64-1.17.96-2.53.96-4.06s-.32-2.92-.96-4.08-1.52-2.06-2.63-2.7c-1.11-.64-2.37-.96-3.78-.96s-2.67.32-3.78.96c-1.11.64-1.99,1.54-2.65,2.7s-.98,2.52-.98,4.08.33,2.89.98,4.06c.66,1.17,1.54,2.08,2.65,2.72,1.11.64,2.36.96,3.74.96Z"/>
      <path class="cls-3" d="M686.04,77.62v-19.85h2.57v5.41l-.26-.95c.55-1.51,1.49-2.67,2.8-3.46,1.31-.79,2.94-1.19,4.88-1.19v2.61c-.1,0-.2,0-.3-.02-.1-.01-.2-.02-.3-.02-2.09,0-3.73.64-4.91,1.91-1.19,1.27-1.78,3.08-1.78,5.43v10.13h-2.69Z"/>
      <path class="cls-3" d="M705.79,77.62l13.31-29.59h5.41l13.36,29.59h-5.75l-11.46-26.67h2.2l-11.41,26.67h-5.66ZM711.92,70.78l1.48-4.31h15.98l1.48,4.31h-18.94Z"/>
      <path class="cls-3" d="M749.71,77.92c-2.17,0-4.12-.49-5.86-1.46s-3.09-2.32-4.08-4.04c-.99-1.72-1.48-3.75-1.48-6.09s.49-4.37,1.48-6.09,2.34-3.06,4.08-4.02,3.68-1.44,5.86-1.44c1.89,0,3.58.42,5.07,1.25,1.49.83,2.68,2.09,3.55,3.78.87,1.69,1.31,3.86,1.31,6.51s-.42,4.78-1.27,6.49c-.85,1.71-2.02,2.98-3.51,3.83s-3.21,1.27-5.16,1.27ZM750.34,73.4c1.27,0,2.4-.28,3.4-.84,1-.56,1.8-1.38,2.41-2.45.61-1.07.91-2.32.91-3.76s-.3-2.73-.91-3.78c-.61-1.06-1.41-1.87-2.41-2.43-1-.56-2.14-.84-3.4-.84s-2.4.28-3.4.84c-1,.56-1.8,1.37-2.41,2.43-.61,1.06-.91,2.32-.91,3.78s.3,2.69.91,3.76c.61,1.07,1.41,1.89,2.41,2.45s2.14.84,3.4.84ZM757.19,77.62v-5.33l.21-6-.42-6v-14.03h5.24v31.37h-5.03Z"/>
      <path class="cls-3" d="M774.44,77.62l-9.68-22.57h5.49l8.33,19.91h-2.71l8.62-19.91h5.07l-9.68,22.57h-5.45Z"/>
      <path class="cls-3" d="M802.08,77.92c-2.51,0-4.7-.5-6.57-1.5-1.87-1-3.33-2.37-4.35-4.12-1.03-1.75-1.54-3.73-1.54-5.96s.5-4.25,1.5-5.98c1-1.73,2.38-3.09,4.14-4.08s3.77-1.48,6.02-1.48,4.16.48,5.88,1.44c1.72.96,3.07,2.31,4.06,4.06.99,1.75,1.48,3.81,1.48,6.17,0,.23,0,.48-.02.76-.01.28-.03.55-.06.8h-18.81v-3.51h16.02l-2.07,1.1c.03-1.3-.24-2.44-.8-3.42-.56-.99-1.33-1.76-2.3-2.33-.97-.56-2.09-.84-3.36-.84s-2.43.28-3.4.84c-.97.56-1.73,1.35-2.28,2.35-.55,1-.82,2.18-.82,3.53v.84c0,1.35.31,2.55.93,3.59.62,1.04,1.49,1.85,2.62,2.41,1.13.56,2.42.84,3.89.84,1.27,0,2.41-.2,3.43-.59,1.01-.4,1.92-1.01,2.7-1.86l2.83,3.26c-1.01,1.18-2.29,2.09-3.83,2.73-1.53.64-3.29.95-5.26.95Z"/>
      <path class="cls-3" d="M817,77.62v-22.57h5.03v6.21l-.59-1.82c.68-1.52,1.74-2.68,3.19-3.47,1.45-.79,3.26-1.18,5.43-1.18v5.03c-.23-.06-.44-.09-.64-.11s-.39-.02-.59-.02c-2,0-3.59.58-4.78,1.75-1.18,1.17-1.78,2.91-1.78,5.22v10.95h-5.28Z"/>
      <path class="cls-3" d="M831.63,59.45v-4.23h15.05v4.23h-15.05ZM843.13,77.92c-2.48,0-4.4-.64-5.75-1.92-1.35-1.28-2.03-3.18-2.03-5.69v-20.25h5.28v20.12c0,1.07.27,1.9.82,2.49.55.59,1.32.89,2.3.89,1.18,0,2.17-.31,2.96-.93l1.48,3.76c-.62.51-1.38.89-2.28,1.14s-1.83.38-2.79.38Z"/>
      <path class="cls-3" d="M854.46,51.33c-.99,0-1.8-.31-2.43-.93-.63-.62-.95-1.37-.95-2.24s.32-1.65.95-2.26c.64-.61,1.44-.91,2.43-.91s1.8.29,2.43.87c.64.58.95,1.3.95,2.18,0,.93-.31,1.71-.93,2.35-.62.63-1.44.95-2.45.95ZM851.79,77.62v-22.57h5.28v22.57h-5.28Z"/>
      <path class="cls-3" d="M870.22,77.92c-1.89,0-3.7-.25-5.43-.74-1.73-.49-3.11-1.09-4.12-1.8l2.03-4.01c1.01.65,2.23,1.18,3.64,1.61s2.82.64,4.23.64c1.66,0,2.87-.23,3.61-.68.75-.45,1.12-1.06,1.12-1.82,0-.62-.25-1.09-.76-1.42-.51-.32-1.17-.57-1.99-.74-.82-.17-1.73-.32-2.73-.46-1-.14-2-.33-3-.57-1-.24-1.91-.59-2.73-1.06s-1.48-1.09-1.99-1.88c-.51-.79-.76-1.83-.76-3.13,0-1.44.41-2.68,1.23-3.74.82-1.06,1.96-1.87,3.44-2.45,1.48-.58,3.23-.87,5.26-.87,1.52,0,3.06.17,4.61.51,1.55.34,2.83.82,3.85,1.44l-2.03,4.02c-1.07-.65-2.15-1.09-3.23-1.33-1.09-.24-2.16-.36-3.23-.36-1.61,0-2.8.24-3.57.72s-1.16,1.08-1.16,1.82c0,.68.25,1.18.76,1.52.51.34,1.17.61,1.99.8.82.2,1.73.36,2.73.49,1,.13,1.99.32,2.98.57s1.9.6,2.73,1.04c.83.44,1.5,1.05,2.01,1.84.51.79.76,1.82.76,3.09,0,1.41-.42,2.63-1.25,3.68-.83,1.04-2.01,1.85-3.53,2.43-1.52.58-3.34.87-5.45.87Z"/>
      <path class="cls-3" d="M886.92,51.33c-.99,0-1.8-.31-2.43-.93-.63-.62-.95-1.37-.95-2.24s.32-1.65.95-2.26c.64-.61,1.44-.91,2.43-.91s1.8.29,2.43.87c.64.58.95,1.3.95,2.18,0,.93-.31,1.71-.93,2.35-.62.63-1.44.95-2.45.95ZM884.25,77.62v-22.57h5.28v22.57h-5.28Z"/>
      <path class="cls-3" d="M908.52,54.8c1.8,0,3.42.35,4.84,1.06s2.54,1.78,3.36,3.23,1.23,3.32,1.23,5.6v12.94h-5.28v-12.26c0-2-.47-3.49-1.42-4.48s-2.26-1.48-3.95-1.48c-1.24,0-2.34.25-3.3.76-.96.51-1.7,1.26-2.22,2.26-.52,1-.78,2.26-.78,3.78v11.41h-5.28v-22.57h5.03v6.09l-.89-1.86c.79-1.44,1.94-2.54,3.44-3.32,1.51-.78,3.25-1.16,5.22-1.16Z"/>
      <path class="cls-3" d="M933.5,76.61c-2.14,0-4.08-.46-5.81-1.37-1.73-.92-3.1-2.19-4.1-3.82-1-1.63-1.5-3.55-1.5-5.75s.5-4.07,1.5-5.71c1-1.63,2.37-2.9,4.1-3.81,1.73-.9,3.67-1.35,5.81-1.35,1.92,0,3.64.38,5.16,1.14,1.52.76,2.74,1.94,3.66,3.55.91,1.61,1.37,3.66,1.37,6.17s-.46,4.57-1.37,6.19c-.92,1.62-2.14,2.82-3.66,3.59-1.52.78-3.24,1.16-5.16,1.16ZM934.18,86.12c-2.09,0-4.12-.27-6.11-.82s-3.61-1.35-4.88-2.39l2.37-3.97c.99.82,2.23,1.47,3.74,1.96s3.04.74,4.59.74c2.48,0,4.3-.57,5.45-1.71s1.73-2.85,1.73-5.14v-4.02l.42-5.11-.17-5.11v-5.49h5.03v19.15c0,4.09-1.04,7.09-3.13,9.02-2.08,1.93-5.1,2.9-9.04,2.9ZM934.3,72.13c1.32,0,2.51-.28,3.55-.82,1.04-.55,1.85-1.31,2.43-2.28.58-.97.87-2.09.87-3.36s-.29-2.39-.87-3.36c-.58-.97-1.39-1.72-2.43-2.24-1.04-.52-2.23-.78-3.55-.78s-2.51.26-3.57.78c-1.06.52-1.87,1.27-2.45,2.24-.58.97-.87,2.09-.87,3.36s.29,2.39.87,3.36c.58.97,1.4,1.73,2.45,2.28,1.06.55,2.25.82,3.57.82Z"/>
    </g>
  </g>
  <g>
    <g>
      <g>
        <path class="cls-3" d="M26.88,8.04h0c-.05,4.17,3.07,7.62,7.21,8.16,29.95,3.96,52.89,29.77,52.52,60.73-.4,33.44-27.82,60.21-61.26,59.82l-.19,16.25c42.4.5,77.19-33.47,77.7-75.87C103.33,37.79,74.13,5.01,36.06.07c-4.82-.63-9.12,3.1-9.18,7.97Z"/>
        <path class="cls-6" d="M86.16,83.54c-3.66,30.28-29.61,53.58-60.81,53.21l-.19,16.25c35.32.42,65.34-23.08,74.68-55.45l-13.67-14Z"/>
        <path class="cls-3" d="M15.99,54.37L.67,69.32c-1.42,1.38-.45,3.79,1.53,3.81l6.36.08-.72,60.55c-.12,9.95,7.42,18.32,17.32,19.24l.95-79.58,6.36.08c1.98.02,3-2.36,1.62-3.78l-14.95-15.31c-.86-.88-2.27-.9-3.14-.04Z"/>
      </g>
      <path class="cls-3" d="M111.18,122.18c2.54-28.58,2.77-45.26,3.46-78.18l4.76-.37c9.29-.73,17.14,6.79,16.83,16.1-.44,13.14-.87,22.3-1.53,28.67h.46c2.07-7.15,5.99-14.94,9.91-22.09,11.07-19.27,20.52-24.9,31.82-24.9,3.46,0,6.22.43,8.99,1.3l-1.94,12.52c-.69,4.44-4.55,7.64-9.05,7.62-.03,0-.05,0-.08,0-7.15,0-14.52,3.46-24.44,19.27-11.53,17.76-16.6,32.48-18.21,49.81h0c-.92,11.49-10.28,20.48-21.8,20.94l-1.71.07,2.54-30.75Z"/>
      <path class="cls-3" d="M266.88,63.49h-17.7v-22.08c-4.25-.36-8.59-.55-12.93-.55-36.2,0-58.33,20.79-58.33,66.48,0,33.13,10.84,46.12,24.44,46.12s27.21-13.86,39.42-42.44h.46c-.69,6.93-1.15,16.67-.69,41.15h0c12.13-.6,21.67-10.59,21.7-22.73.07-21.97,1.12-34.63,2.73-55.67l.89-10.29ZM244.33,67.71c-2.31,31.18-24.21,66.48-33.66,66.48-5.07,0-9.91-10.4-9.91-30.97,0-29.23,10.14-45.91,29.97-45.91,3.92,0,8.07.22,14.29,1.3l-.69,9.1Z"/>
      <polygon class="cls-1" points="276.92 42.71 276.92 59.71 252.67 59.71 252.67 34.75 269.86 34.75 264.75 46.74 264.75 46.74 264.76 46.73 276.92 42.71"/>
    </g>
    <g>
      <polygon class="cls-5" points="295.03 35.28 277.05 40.72 268.59 43.52 268.59 43.52 272.14 35.18 279.33 18.31 282.39 30.78 282.78 31.16 295.03 35.28"/>
      <polygon class="cls-2" points="282.4 30.78 282.39 30.78 277.05 35.71 268.59 43.52 268.59 43.53 268.59 43.52 272.14 35.18 279.33 18.31 279.34 18.31 282.4 30.78"/>
      <polygon class="cls-4" points="282.4 30.78 282.39 30.78 277.05 35.71 268.59 43.52 268.59 43.53 268.59 43.52 272.14 35.18 279.33 18.31 279.34 18.31 282.4 30.78"/>
    </g>
  </g>
  <rect class="cls-3" x="253.57" y="87.46" width="131.94" height="7.89" transform="translate(410.95 -228.12) rotate(90)"/>
</svg>